<svg width="74" height="74" viewBox="0 0 74 74" fill="none" xmlns="http://www.w3.org/2000/svg">
<g clip-path="url(#clip0_35_239)">
<path d="M69.8728 46.9483L46.9483 69.881C41.451 75.3783 32.5487 75.3783 27.0514 69.881L4.11868 46.9483C-1.3786 41.451 -1.3786 32.5487 4.11868 27.0514L27.0514 4.11869C32.5487 -1.37859 41.4592 -1.37859 46.9483 4.11869L48.22 5.39045C47.6375 5.61198 47.0877 5.89095 46.5626 6.22735C45.7503 6.73605 45.0283 7.35963 44.4129 8.07345C38.4398 8.44267 32.8522 10.74 29.2175 14.3666C26.9529 16.6312 25.3119 19.1665 24.2207 22.1038C23.4248 24.2453 23.0064 26.3376 22.6371 28.1837C22.6125 28.3067 22.5879 28.4216 22.5633 28.5365L16.5245 34.5753C15.4579 35.6419 15.2445 37.2337 15.8763 38.5054C16.0404 38.8254 16.2537 39.129 16.5245 39.3998L34.5835 57.4587C35.9209 58.7961 38.0788 58.7961 39.4162 57.4587L46.0457 50.8292L47.6703 49.2046L49.3441 47.5308L57.4752 39.3998C58.8125 38.0624 58.8125 35.9045 57.4752 34.5671L55.1203 32.2123C55.7603 31.843 56.4659 31.5066 57.2454 31.1949C62.1191 29.2831 65.7621 27.7652 68.1579 25.6648C68.2236 25.6073 68.281 25.5581 68.3466 25.5007L69.8728 27.0268C75.37 32.5487 75.37 41.451 69.8728 46.9483Z" fill="white"/>
<path d="M51.7073 18.5349C49.4181 18.5349 47.5556 16.6806 47.5556 14.3914C47.5556 13.5135 47.8264 12.693 48.3022 12.0202C48.7125 12.8243 49.5494 13.3822 50.5176 13.3822C51.3709 13.3822 52.1257 12.9555 52.577 12.2992C52.8478 11.8971 53.0119 11.413 53.0119 10.8961C53.0119 10.7402 52.9954 10.5925 52.9708 10.4448C53.1431 10.5023 53.3072 10.5597 53.4631 10.6336C54.3493 11.0438 55.0549 11.7576 55.4733 12.6438C55.4979 12.693 55.5144 12.734 55.539 12.7832C55.7441 13.2755 55.8672 13.8253 55.8672 14.3914C55.8508 16.6806 53.9964 18.5349 51.7073 18.5349ZM57.5081 13.1853C56.9502 10.4941 54.5626 8.46747 51.6991 8.46747C51.5678 8.46747 51.4283 8.47567 51.297 8.48388C51.2478 8.48388 51.2068 8.49208 51.1576 8.49208C51.0919 8.50029 51.0263 8.50849 50.9606 8.5167C50.9114 8.5249 50.854 8.53311 50.8047 8.54131C50.7637 8.54952 50.7227 8.55772 50.6817 8.56593C50.6571 8.56593 50.6324 8.57413 50.6078 8.57413C50.575 8.58234 50.5422 8.59054 50.5094 8.59054C50.4765 8.59875 50.4437 8.60695 50.4109 8.61516C50.3863 8.61516 50.3617 8.62336 50.3453 8.63157C50.3042 8.63977 50.2632 8.64798 50.2222 8.66439C50.1976 8.67259 50.1812 8.67259 50.1648 8.6808C50.1237 8.689 50.0909 8.70541 50.0499 8.71362C50.0253 8.72182 50.0007 8.73003 49.976 8.73823C49.9432 8.74644 49.9186 8.75464 49.8858 8.76285C49.8612 8.77105 49.8366 8.77925 49.8119 8.78746C49.7545 8.80387 49.7053 8.82848 49.6478 8.84489L49.5576 8.87771C49.5166 8.89412 49.4673 8.91053 49.4263 8.92694C49.3853 8.94335 49.3361 8.95976 49.295 8.98438C49.2622 9.00079 49.2376 9.00899 49.2048 9.0254C49.1884 9.03361 49.172 9.04181 49.1638 9.05002C49.1391 9.06643 49.1145 9.07463 49.0899 9.09104C49.0817 9.09104 49.0735 9.09925 49.0653 9.10745C49.0571 9.11566 49.0407 9.11566 49.0325 9.12386C48.9915 9.14027 48.9586 9.16489 48.9176 9.1813C48.8848 9.1977 48.852 9.21411 48.8192 9.23873C48.7781 9.25514 48.7453 9.27975 48.7043 9.30437C48.6468 9.33719 48.5976 9.37001 48.5402 9.40283C48.4745 9.44385 48.4171 9.48488 48.3597 9.5177C48.2448 9.59154 48.1382 9.67359 48.0315 9.75564C47.9987 9.78025 47.9576 9.81307 47.9248 9.83769C47.9084 9.8541 47.892 9.8623 47.8756 9.87871C47.8674 9.88692 47.8592 9.89512 47.851 9.89512C47.81 9.92794 47.7771 9.96076 47.7361 9.99358C47.7279 9.99358 47.7279 10.0018 47.7279 10.0018C47.6951 10.0346 47.6623 10.0592 47.6294 10.092C47.6212 10.1002 47.613 10.1084 47.613 10.1084C47.5966 10.1249 47.572 10.1413 47.5556 10.1659C47.531 10.1905 47.5064 10.2151 47.49 10.2315L47.4818 10.2397C47.4571 10.2643 47.4325 10.289 47.4079 10.3136C47.3997 10.3218 47.3915 10.33 47.3833 10.3382C47.3669 10.3546 47.3587 10.371 47.3423 10.3792C47.3259 10.3956 47.3095 10.412 47.293 10.4284C47.2766 10.4448 47.2602 10.4613 47.2438 10.4777C47.2192 10.5105 47.1864 10.5433 47.1618 10.5679C47.1125 10.6254 47.0633 10.6828 47.0223 10.7402C46.9813 10.7895 46.9484 10.8387 46.9156 10.8797C46.8828 10.9207 46.85 10.97 46.8254 11.011C46.809 11.0356 46.7925 11.0602 46.7761 11.0848C46.7515 11.1177 46.7269 11.1505 46.7105 11.1833C46.7023 11.1997 46.6859 11.2161 46.6777 11.2325C46.6531 11.2735 46.6284 11.3064 46.6038 11.3474C46.5956 11.3638 46.5792 11.3802 46.571 11.3966C46.5546 11.4294 46.53 11.4623 46.5136 11.4951C46.4972 11.5197 46.4808 11.5525 46.4643 11.5771C46.4315 11.6264 46.4069 11.6838 46.3823 11.733C46.2838 11.733 46.1854 11.733 46.0951 11.733C46.0131 11.733 45.9392 11.733 45.8572 11.733C45.7833 11.733 45.7177 11.733 45.6439 11.733C45.611 11.733 45.5864 11.733 45.5536 11.733C45.4305 11.733 45.3075 11.7412 45.1844 11.7412C45.1516 11.7412 45.1269 11.7412 45.0941 11.7412C45.0203 11.7412 44.9546 11.7494 44.8808 11.7494C44.7988 11.7494 44.7167 11.7576 44.6429 11.7658C44.6347 11.7658 44.6182 11.7658 44.61 11.7658C44.5362 11.774 44.4706 11.774 44.3967 11.7822C44.3311 11.7905 44.2654 11.7905 44.1916 11.7987C44.0931 11.8069 43.9947 11.8151 43.8962 11.8233C43.7403 11.8397 43.5844 11.8561 43.4285 11.8725C43.4285 11.8725 43.4285 11.8725 43.4203 11.8725C43.1003 11.9053 42.7721 11.9546 42.4439 12.0038C42.3455 12.0202 42.247 12.0366 42.1486 12.053C42.0829 12.0612 42.0173 12.0776 41.9517 12.0858C41.8942 12.094 41.845 12.1022 41.7876 12.1186C41.5742 12.1597 41.3691 12.2007 41.1558 12.2417C41.0737 12.2581 40.9835 12.2745 40.9014 12.2992C40.8522 12.3074 40.7948 12.3238 40.7455 12.332H40.7373C40.6471 12.3566 40.5568 12.373 40.4666 12.3976C40.3599 12.4222 40.245 12.4551 40.1384 12.4797C40.0317 12.5043 39.9168 12.5371 39.8102 12.5699C39.802 12.5699 39.7856 12.5781 39.7774 12.5781C39.6789 12.6027 39.5804 12.6356 39.482 12.6602C39.4081 12.6848 39.3343 12.7012 39.2604 12.7258C39.1948 12.7422 39.1292 12.7668 39.0635 12.7832C38.9651 12.8161 38.8666 12.8489 38.7682 12.8735C38.6861 12.8981 38.6041 12.9309 38.522 12.9555C38.5138 12.9555 38.5056 12.9638 38.4974 12.9638C38.4153 12.9884 38.3251 13.0212 38.243 13.054C38.1282 13.095 38.0133 13.1361 37.8984 13.1853C37.841 13.2099 37.7836 13.2263 37.7179 13.2509C37.6523 13.2755 37.5949 13.3002 37.5292 13.3248C37.4472 13.3576 37.3651 13.3904 37.2749 13.4232C37.16 13.4725 37.0451 13.5217 36.9303 13.5709C36.8318 13.6119 36.7333 13.653 36.6349 13.7022C36.4298 13.7924 36.2328 13.8909 36.0359 13.9894C35.9457 14.0304 35.8554 14.0796 35.7652 14.1289C35.6585 14.1863 35.5518 14.2437 35.4452 14.3012C35.3549 14.3504 35.2647 14.3996 35.1744 14.4488C35.158 14.457 35.1498 14.4653 35.1334 14.4735C34.9447 14.5801 34.7642 14.6868 34.5837 14.7934C34.4934 14.8509 34.3949 14.9083 34.3047 14.9657C34.1242 15.0806 33.9437 15.2037 33.7632 15.3268C33.755 15.335 33.7468 15.3432 33.7385 15.3432C33.6565 15.4006 33.5745 15.458 33.4924 15.5237C33.4021 15.5893 33.3201 15.655 33.2298 15.7206C33.1396 15.7862 33.0575 15.8519 32.9755 15.9257C32.8934 15.9914 32.8032 16.0652 32.7211 16.1308C32.557 16.2703 32.3929 16.4098 32.2288 16.5575C32.1386 16.6396 32.0483 16.7298 31.9581 16.8119C31.9007 16.8693 31.8432 16.9185 31.7858 16.976C31.6627 17.0908 31.5478 17.2139 31.433 17.337C31.3755 17.3944 31.3181 17.46 31.2689 17.5175C31.2114 17.5749 31.1622 17.6405 31.1048 17.698C31.0638 17.739 31.0309 17.78 30.9899 17.8293C30.9817 17.8375 30.9735 17.8457 30.9653 17.8539C30.9489 17.8703 30.9325 17.8867 30.9161 17.9113C30.9079 17.9195 30.9079 17.9277 30.8997 17.9277C30.8586 17.9769 30.8176 18.018 30.7848 18.0672C30.7356 18.1328 30.6781 18.1903 30.6289 18.2559C30.5058 18.4036 30.3909 18.5513 30.2679 18.6908C30.153 18.8385 30.0381 18.9862 29.9315 19.1338C29.9151 19.1585 29.8905 19.1831 29.874 19.2159C29.833 19.2651 29.8002 19.3143 29.7674 19.3718C29.7181 19.4456 29.6689 19.5113 29.6197 19.5769C29.5869 19.6261 29.554 19.6754 29.5212 19.7246C29.4884 19.7738 29.4556 19.8231 29.4228 19.8723C29.3982 19.9133 29.3653 19.9543 29.3407 19.9954C29.3079 20.0528 29.2669 20.1102 29.2341 20.1677C29.0946 20.3892 28.9633 20.6107 28.832 20.8323C28.7992 20.8815 28.7746 20.9389 28.7418 20.9881C28.6679 21.1276 28.5941 21.2589 28.5202 21.3984C28.4874 21.464 28.4546 21.5297 28.4136 21.5953C28.3807 21.661 28.3479 21.7266 28.3151 21.7922C28.2823 21.8579 28.2495 21.9235 28.2166 21.9891C28.1182 22.1861 28.0361 22.3912 27.9459 22.5881C27.9213 22.6455 27.8967 22.703 27.872 22.7522C27.8474 22.8096 27.8228 22.8753 27.7982 22.9327C27.7654 23.0066 27.7408 23.0804 27.7079 23.1542C27.6833 23.2281 27.6505 23.3019 27.6177 23.384C27.5438 23.5727 27.4782 23.7614 27.4126 23.9583C27.3962 23.9993 27.388 24.0404 27.3715 24.0896C27.3469 24.147 27.3305 24.2045 27.3141 24.2619C27.2977 24.3193 27.2813 24.3768 27.2649 24.426C27.2403 24.5081 27.2074 24.5983 27.1828 24.6804V24.6886C27.1582 24.7624 27.1336 24.8445 27.1172 24.9183C27.1172 24.9265 27.109 24.9347 27.109 24.9429C27.0844 25.0414 27.0516 25.1316 27.0269 25.2301C27.0023 25.3121 26.9859 25.386 26.9613 25.468V25.4762C26.9613 25.4762 26.9613 25.4762 26.9613 25.4844C26.9449 25.5337 26.9367 25.5911 26.9203 25.6403C26.9121 25.6567 26.9121 25.6731 26.9039 25.6978C26.8875 25.747 26.8793 25.7962 26.8628 25.8454C26.8136 26.0506 26.7644 26.2557 26.7152 26.4608C26.6905 26.5593 26.6659 26.6659 26.6495 26.7644C26.6249 26.8793 26.6003 26.9941 26.5757 27.109C26.5593 27.1993 26.5346 27.2895 26.5182 27.3798C26.4936 27.5028 26.469 27.6341 26.4362 27.7572C26.4198 27.831 26.4034 27.9131 26.387 27.9869C26.3788 28.0115 26.3788 28.0362 26.3705 28.069C26.3377 28.2331 26.3049 28.3972 26.2721 28.5613C26.2311 28.7664 26.19 28.9715 26.149 29.1766L26.1326 29.2505C26.1244 29.2669 26.1244 29.2915 26.1244 29.3079C26.0752 29.5623 26.0259 29.8084 25.9685 30.0628C25.9685 30.071 25.9685 30.0792 25.9603 30.0792C25.9439 30.1776 25.9193 30.2679 25.9029 30.3664V30.3746C25.8783 30.473 25.8618 30.5715 25.8372 30.6699C25.8208 30.7684 25.7962 30.8586 25.7716 30.9571V30.9653C25.7306 31.154 25.6813 31.3509 25.6403 31.5397V31.5479C25.5665 31.835 25.4926 32.114 25.4188 32.4012C25.4188 32.4094 25.4188 32.4094 25.4106 32.4176C25.386 32.516 25.3531 32.6063 25.3285 32.7047C25.3039 32.8032 25.2711 32.8935 25.2383 32.9919C25.2219 33.0411 25.2055 33.0904 25.1972 33.1314C25.1808 33.1806 25.1644 33.2217 25.148 33.2709C25.1316 33.3201 25.1152 33.3611 25.0988 33.4104C25.0824 33.4596 25.066 33.5088 25.0496 33.5499C24.8116 34.2227 24.5326 34.8873 24.1962 35.5436C24.1798 35.5765 24.1634 35.6011 24.147 35.6339C24.106 35.7159 24.065 35.7898 24.0157 35.8718C23.9911 35.9211 23.9665 35.9621 23.9419 36.0031C23.8927 36.0934 23.8352 36.1836 23.786 36.2739C23.7614 36.3149 23.7286 36.3641 23.704 36.4052C23.6793 36.4462 23.6465 36.4954 23.6219 36.5364C23.5317 36.6677 23.4496 36.799 23.3511 36.9303C23.3183 36.9713 23.2855 37.0205 23.2609 37.0615C23.1624 37.1928 23.0722 37.3241 22.9655 37.4554C22.9327 37.4964 22.8999 37.5456 22.8589 37.5867C22.826 37.6277 22.785 37.6687 22.7522 37.7179C22.7194 37.759 22.6783 37.8 22.6455 37.8492C22.6127 37.882 22.5881 37.9231 22.5553 37.9559C22.5142 38.0051 22.465 38.0543 22.424 38.1036C22.383 38.1446 22.3501 38.1856 22.3091 38.2266C22.2681 38.2677 22.2353 38.3087 22.1943 38.3579C22.1532 38.3989 22.1122 38.44 22.0712 38.481C21.9563 38.5959 21.8332 38.7189 21.7184 38.8338C21.6609 38.883 21.6035 38.9405 21.5543 38.9897C21.5132 39.0307 21.4722 39.0635 21.4312 39.1046L36.9303 54.6036L45.4305 46.1034C45.4305 46.0951 45.4305 46.0869 45.4305 46.0787C45.4223 45.9475 45.4141 45.8162 45.4141 45.6849C45.4141 45.6767 45.4141 45.6685 45.4141 45.6603C45.4059 45.5536 45.4059 45.4388 45.4059 45.3321C45.4059 45.2418 45.3977 45.1516 45.3977 45.0613C45.3977 44.9711 45.3977 44.8808 45.3895 44.7906C45.3895 44.5608 45.3895 44.3393 45.3895 44.126C45.3895 44.0767 45.3895 44.0357 45.3895 43.9865C45.3895 43.888 45.3895 43.7896 45.3977 43.6993C45.3977 43.6829 45.3977 43.6665 45.3977 43.6501C45.3977 43.5434 45.4059 43.4368 45.4059 43.3301C45.4059 43.3055 45.4059 43.2727 45.4059 43.248C45.4059 43.1496 45.4141 43.0511 45.4223 42.9527C45.4223 42.9363 45.4223 42.9116 45.4223 42.8952C45.4305 42.7804 45.4305 42.6655 45.4469 42.5506C45.4551 42.4358 45.4634 42.3291 45.4716 42.2142C45.4716 42.1896 45.4716 42.1732 45.4798 42.1486C45.488 42.0665 45.4962 41.9845 45.5044 41.9024C45.529 41.6727 45.5536 41.4512 45.5782 41.2214C45.5864 41.1804 45.5864 41.1312 45.5946 41.0902C45.6028 41.0163 45.611 40.9425 45.6192 40.8768C45.6439 40.7209 45.6603 40.565 45.6849 40.4091C45.7013 40.3189 45.7095 40.2368 45.7259 40.1466C45.7423 40.0399 45.7587 39.9415 45.7833 39.843C45.7833 39.8266 45.7915 39.8184 45.7915 39.802C45.808 39.7035 45.8244 39.6051 45.849 39.5148C45.8736 39.4082 45.89 39.3097 45.9146 39.2112C45.9228 39.1948 45.9228 39.1784 45.9228 39.162C45.9392 39.0717 45.9639 38.9897 45.9803 38.8994C45.9967 38.8174 46.0213 38.7436 46.0377 38.6615C46.0459 38.6205 46.0541 38.5795 46.0705 38.5384C46.0787 38.5056 46.0869 38.4728 46.0951 38.4318C46.1115 38.3825 46.1197 38.3333 46.1362 38.2923C46.1608 38.1938 46.1936 38.0872 46.2182 37.9887C46.2428 37.9149 46.2592 37.841 46.2838 37.7672C46.3249 37.6441 46.3577 37.521 46.3987 37.3979C46.4233 37.3323 46.4397 37.2667 46.4643 37.201C46.489 37.1354 46.5054 37.078 46.53 37.0123C46.5464 36.9631 46.5628 36.9221 46.5792 36.8728C46.5874 36.8482 46.5956 36.8318 46.6038 36.8072C46.6202 36.758 46.6449 36.7005 46.6613 36.6513C46.7023 36.5364 46.7515 36.4216 46.7925 36.3067C46.85 36.159 46.9156 36.0113 46.9813 35.8636C47.0059 35.798 47.0387 35.7324 47.0715 35.6667C47.0879 35.6339 47.1043 35.6011 47.1207 35.5601C47.1536 35.4944 47.1782 35.437 47.211 35.3713C47.252 35.2893 47.2848 35.2154 47.3259 35.1334C47.3669 35.0596 47.4079 34.9775 47.4489 34.9037C47.4489 34.9037 47.4489 34.9037 47.4489 34.8955C47.49 34.8216 47.531 34.7478 47.572 34.6739C47.6048 34.6083 47.6459 34.5426 47.6787 34.477C47.7197 34.4032 47.7607 34.3293 47.8017 34.2555C47.8346 34.2062 47.8674 34.1488 47.892 34.0996C47.9248 34.0504 47.9576 33.9929 47.9823 33.9437C48.2284 33.5499 48.491 33.1724 48.7535 32.8196C48.7945 32.7704 48.8356 32.713 48.8766 32.6637C49.0817 32.4012 49.295 32.1468 49.5166 31.9089C49.6396 31.7776 49.7627 31.6463 49.8858 31.515C49.9268 31.474 49.9678 31.433 50.0089 31.392C50.0745 31.3263 50.1401 31.2607 50.2058 31.195C50.255 31.1458 50.3124 31.0884 50.3699 31.0391C50.3781 31.0309 50.3781 31.0309 50.3863 31.0227C50.4437 30.9653 50.5012 30.9161 50.5586 30.8668C50.6078 30.8176 50.6653 30.7766 50.7145 30.7274C50.8294 30.6289 50.9442 30.5304 51.0591 30.432C51.0919 30.4074 51.1247 30.3828 51.1576 30.3581C51.1986 30.3253 51.2314 30.2925 51.2724 30.2679C51.3217 30.2269 51.3791 30.1858 51.4283 30.1448C51.5022 30.0874 51.576 30.0299 51.658 29.9725C51.6991 29.9397 51.7401 29.9069 51.7811 29.8823C51.978 29.7428 52.1668 29.6033 52.3637 29.4802C52.4457 29.431 52.5278 29.3736 52.6016 29.3243C52.659 29.2915 52.7083 29.2587 52.7657 29.2259C52.9134 29.1356 53.0611 29.0454 53.2088 28.9551C53.2498 28.9305 53.2826 28.9141 53.3236 28.8895C53.3811 28.8566 53.4303 28.8238 53.4877 28.7992C53.5616 28.7582 53.6354 28.7172 53.7093 28.6761C53.7831 28.6351 53.857 28.5941 53.9308 28.5613C54.0047 28.5202 54.0785 28.4874 54.1523 28.4464C54.2262 28.4054 54.3 28.3726 54.3739 28.3397C54.4477 28.3069 54.5216 28.2659 54.5872 28.2331C54.661 28.2003 54.7267 28.1674 54.8005 28.1346C54.94 28.069 55.0795 28.0115 55.219 27.9459C55.2846 27.9131 55.3585 27.8885 55.4241 27.8557C55.4815 27.831 55.5308 27.8146 55.5882 27.79C55.6702 27.7572 55.7441 27.7244 55.8261 27.6916C55.9738 27.6341 56.1133 27.5767 56.261 27.5192C56.3184 27.4946 56.3759 27.47 56.4415 27.4536C56.4989 27.429 56.5564 27.4044 56.6138 27.388C57.0241 27.2239 57.4261 27.068 57.8117 26.9121C57.9758 26.8464 58.1399 26.7808 58.2958 26.7152C58.3615 26.6906 58.4353 26.6577 58.5009 26.6331C58.7553 26.5265 59.0014 26.428 59.2394 26.3295C59.305 26.3049 59.3625 26.2803 59.4199 26.2557C59.4773 26.2311 59.543 26.2065 59.6004 26.1819C59.7235 26.1326 59.8383 26.0834 59.9532 26.0342C60.0599 25.9849 60.1665 25.9439 60.2732 25.8947C60.2896 25.8865 60.2978 25.8865 60.3142 25.8783C60.4209 25.829 60.5275 25.7798 60.6342 25.7388C60.6916 25.7142 60.7409 25.6896 60.7983 25.6649C60.9624 25.5911 61.1265 25.5173 61.2824 25.4434C61.3398 25.4188 61.3891 25.3942 61.4383 25.3696C61.545 25.3203 61.6516 25.2711 61.7501 25.2219C61.7993 25.1973 61.8485 25.1726 61.906 25.148C61.9552 25.1234 62.0044 25.0988 62.0537 25.0742C62.1029 25.0496 62.1521 25.025 62.2013 25.0003C62.349 24.9265 62.4967 24.8527 62.6362 24.7788C62.6444 24.7706 62.6608 24.7624 62.669 24.7624C62.7511 24.7214 62.8331 24.6804 62.9152 24.6311C63.0711 24.5491 63.2188 24.467 63.3664 24.385C63.4075 24.3604 63.4567 24.3357 63.4977 24.3111C63.5387 24.2865 63.588 24.2619 63.629 24.2373C63.67 24.2127 63.7193 24.1881 63.7603 24.1634C63.8013 24.1388 63.8423 24.1142 63.8834 24.0896C63.9244 24.065 63.9654 24.0404 64.0064 24.0158C64.0474 23.9911 64.0885 23.9665 64.1295 23.9419C64.1869 23.9009 64.2526 23.8681 64.31 23.827C64.3674 23.786 64.4249 23.7532 64.4823 23.7122C64.5233 23.6876 64.5562 23.6629 64.5972 23.6383C64.6464 23.6055 64.6956 23.5727 64.7449 23.5399C64.7777 23.5153 64.8187 23.4906 64.8515 23.466C64.8926 23.4332 64.9336 23.4086 64.9746 23.3758C64.9992 23.3594 65.032 23.3348 65.0567 23.3183C65.0895 23.2937 65.1223 23.2691 65.1551 23.2445C65.1961 23.2117 65.2372 23.1789 65.2782 23.146C65.3192 23.1132 65.3602 23.0804 65.3931 23.0476C65.4341 23.0148 65.4669 22.9819 65.5079 22.9491C65.5489 22.9163 65.5818 22.8835 65.6228 22.8507C65.6556 22.826 65.6884 22.7932 65.7212 22.7686C65.7295 22.7604 65.7459 22.744 65.7541 22.7358C65.8771 22.6209 66.0002 22.5061 66.1069 22.3912C66.1561 22.342 66.2053 22.2845 66.2546 22.2271C66.3776 22.0876 66.4925 21.9481 66.5992 21.8004C66.6238 21.7676 66.6484 21.7266 66.673 21.6938C66.6976 21.6609 66.7222 21.6199 66.7469 21.5871C66.7715 21.5543 66.7879 21.5215 66.8125 21.4886C66.8125 21.4804 66.8207 21.4804 66.8207 21.4722C66.8453 21.4394 66.8617 21.3984 66.8863 21.3656C66.911 21.3245 66.9274 21.2917 66.952 21.2507C66.9684 21.2179 66.9848 21.1851 67.0094 21.144C67.0094 21.1358 67.0176 21.1276 67.0176 21.1194C67.034 21.0866 67.0504 21.062 67.0586 21.0292C67.0669 21.021 67.0669 21.0128 67.0669 21.0046C67.0833 20.9799 67.0915 20.9471 67.1079 20.9225C67.1325 20.8651 67.1571 20.8158 67.1817 20.7584C67.1899 20.7338 67.1981 20.7174 67.2063 20.6928C67.2145 20.6764 67.2145 20.66 67.2227 20.6435C67.231 20.6107 67.2474 20.5779 67.2556 20.5451C67.272 20.5041 67.2802 20.463 67.2966 20.422C67.3048 20.3892 67.313 20.3564 67.3294 20.3236C67.3376 20.2989 67.3458 20.2825 67.3458 20.2579C67.354 20.2333 67.3622 20.2005 67.3704 20.1759C67.3786 20.1348 67.3868 20.0938 67.3951 20.061C67.4033 20.0036 67.4197 19.9461 67.4279 19.8887C67.4361 19.8559 67.4361 19.8231 67.4443 19.7984C67.4525 19.741 67.4607 19.6918 67.4689 19.6425C67.4771 19.6097 67.4771 19.5769 67.4771 19.5441C67.4853 19.5031 67.4853 19.4538 67.4935 19.4128C67.5017 19.2815 67.5099 19.142 67.5099 19.0026C67.6084 16.2703 62.7511 14.3504 57.5081 13.1853Z" fill="white"/>
</g>
<defs>
<clipPath id="clip0_35_239">
<rect width="74" height="74" fill="white"/>
</clipPath>
</defs>
</svg>
