<svg width="61" height="70" viewBox="0 0 61 70" fill="none" xmlns="http://www.w3.org/2000/svg">
<g clip-path="url(#clip0_19_136)">
<path fill-rule="evenodd" clip-rule="evenodd" d="M36.7496 24.9354C38.971 23.8677 41.7976 22.2959 44.6276 20.1425C45.2242 21.3369 45.2896 22.3792 44.9822 23.2209C44.7643 23.814 44.3538 24.3299 43.814 24.7403C43.2294 25.1839 42.4993 25.5068 41.6923 25.6814C40.161 26.0139 38.3731 25.8197 36.7496 24.9354ZM37.1347 35.8755L40.0753 37.5128C34.0712 40.7566 32.4389 46.7798 30.5 52.6465C28.5613 46.7798 26.9288 40.7566 20.9249 37.5128L23.8655 35.8755C24.15 35.7718 24.3931 35.5841 24.5601 35.3391C24.7271 35.0941 24.8093 34.8044 24.7951 34.5116C24.5256 29.0173 26.0647 26.5876 28.1406 25.0621C28.8852 24.5156 29.698 24.2412 30.5 24.2412C31.302 24.2412 32.1148 24.5156 32.8596 25.0621C34.9356 26.5876 36.4746 29.0173 36.2052 34.5116C36.1909 34.8044 36.2732 35.0941 36.4401 35.3391C36.6071 35.5841 36.8503 35.7718 37.1347 35.8755ZM30.5 0C33.8991 0.0879667 37.3066 0.724033 40.2639 1.9614C42.3117 2.81937 44.2226 3.95267 45.9529 5.30787C46.7342 5.91967 47.3776 6.5107 48.0864 7.1911C49.998 7.2548 52.7916 5.20777 54.0886 3.29233C51.8565 10.346 41.671 18.6758 34.6194 21.8631C34.6165 21.8619 34.6146 21.8603 34.6124 21.8589C33.3469 20.9274 31.9236 20.4617 30.5 20.4617C29.0764 20.4617 27.6533 20.9274 26.3878 21.8589C26.3857 21.8601 26.3837 21.8622 26.3808 21.8631C19.329 18.6758 9.14371 10.346 6.91164 3.29233C8.20837 5.20777 11.002 7.2548 12.9136 7.1911C13.6226 6.51093 14.266 5.91967 15.0472 5.30787C16.7774 3.95267 18.6883 2.81937 20.7361 1.9614C23.6937 0.724033 27.1012 0.0879667 30.5 0ZM24.2504 24.9354C22.0292 23.8677 19.2024 22.2959 16.3727 20.1425C15.776 21.3369 15.7106 22.3792 16.0178 23.2209C16.2359 23.814 16.6465 24.3299 17.186 24.7403C17.7709 25.1839 18.5009 25.5068 19.308 25.6814C20.8392 26.0139 22.6269 25.8197 24.2504 24.9354Z" fill="white"/>
<path fill-rule="evenodd" clip-rule="evenodd" d="M47.7269 17.5037C49.2849 15.9882 50.6576 14.3108 51.7614 12.814L52.322 13.8311C54.1268 17.3117 55.0646 20.7783 55.0646 24.6797L55.0607 30.8705L55.0946 34.0797C55.2253 41.9585 56.9938 49.9298 61 57.2248L52.6181 50.7096L46.6873 59.9867L40.4566 54.3328L30.5 69.9076L20.5434 54.3331L14.313 59.987L8.38217 50.7099L0 57.225C4.00615 49.9301 5.77467 41.9587 5.90562 34.08L5.93951 30.8707L5.93564 24.6799C5.93564 20.7783 6.87315 17.3117 8.67846 13.8313L9.23884 12.8142C10.3426 14.311 11.7151 15.9882 13.2733 17.504L12.7868 18.4781C11.8415 20.3702 11.5285 22.4859 12.2649 24.4979C12.7396 25.7938 13.6059 26.9052 14.7228 27.7536C15.8072 28.5775 17.0907 29.1328 18.4343 29.4245C19.3096 29.6144 20.2014 29.6926 21.0874 29.666C20.8806 30.7956 20.7903 31.9671 20.7845 33.1609L12.8778 37.5629L18.9792 40.8597C19.4669 41.1233 19.9311 41.4252 20.3672 41.7625C25.3975 46.116 28.4219 58.9953 30.5002 65.2862C32.5788 58.9953 35.6029 46.116 40.6335 41.7625C41.0695 41.4251 41.5338 41.1232 42.0215 40.8597L48.1229 37.5629L40.2159 33.1609C40.2101 31.9671 40.1198 30.7956 39.9131 29.666C40.7991 29.6926 41.6908 29.6144 42.5661 29.4245C43.9098 29.1328 45.1935 28.5775 46.2777 27.7536C47.3943 26.9052 48.2609 25.7938 48.7354 24.4979C49.472 22.4859 49.1587 20.3705 48.2137 18.4781L47.7272 17.504L47.7269 17.5037Z" fill="white"/>
</g>
<defs>
<clipPath id="clip0_19_136">
<rect width="61" height="70" fill="white"/>
</clipPath>
</defs>
</svg>
