<?xml version="1.0" encoding="utf-8"?>
<!-- Generator: Adobe Illustrator 23.0.3, SVG Export Plug-In . SVG Version: 6.00 Build 0)  -->
<svg version="1.1" id="Слой_1" xmlns="http://www.w3.org/2000/svg" xmlns:xlink="http://www.w3.org/1999/xlink" x="0px" y="0px"
	 viewBox="0 0 574.9 574.9" style="enable-background:new 0 0 574.9 574.9;" xml:space="preserve">
<style type="text/css">
	.st0{fill:#00FF01;}
	.st1{fill:#BBD8FA;}
	.st2{fill:#0E1213;}
	.st3{fill:#FFFFFF;}
	.st4{fill:#F88899;}
	.st5{fill:#7998C2;}
</style>
<g>
	<rect class="st0" width="574.9" height="574.9"/>
	<g>
		<g>
			<rect x="125.8" y="184.2" width="34.2" height="119.2"/>
			<polygon points="260.6,235.3 260.6,184.2 226.4,184.2 226.4,235.3 211,235.3 211,184.2 176.8,184.2 176.8,235.3 193.9,235.3 
				193.9,252.4 176.8,252.4 176.8,303.5 211,303.5 211,252.4 226.4,252.4 226.4,303.5 260.6,303.5 260.6,252.4 243.5,252.4 
				243.5,235.3 			"/>
			<g>
				<polygon points="438.1,70.1 438.1,53 387.6,53 360.5,53 353.3,53 353.3,172.2 360.5,172.2 387.6,172.2 438.1,172.2 438.1,155.1 
					387.6,155.1 387.6,121.2 422.1,121.2 422.1,104.1 387.6,104.1 387.6,70.1 				"/>
				<polygon points="176.8,53 142.9,53 142.9,70.1 176.8,70.1 176.8,172.2 211,172.2 211,70.1 244,70.1 244,53 211,53 				"/>
				<polygon points="303.3,104.1 286.3,104.1 286.3,53 252.1,53 252.1,172.2 286.3,172.2 286.3,121.2 303.3,121.2 303.3,172.2 
					337.5,172.2 337.5,53 303.3,53 				"/>
			</g>
			<path d="M100.5,201.3v-17.1H83.4H66.8H32.6v17.1v34v17.1v51.1h34.2v-51.1h16.6h17.1v-17.1h17.1v-34H100.5z M66.8,235.3v-34h16.6
				v34H66.8z"/>
			<polygon points="361.6,201.3 361.6,184.2 311,184.2 283.9,184.2 276.8,184.2 276.8,303.5 283.9,303.5 311,303.5 361.6,303.5 
				361.6,286.4 311,286.4 311,252.4 345.6,252.4 345.6,235.3 311,235.3 311,201.3 			"/>
			<polygon points="404.7,286.4 404.7,184.2 370.4,184.2 370.4,303.5 377.6,303.5 404.7,303.5 455.2,303.5 455.2,286.4 			"/>
			<polygon points="514.1,218.5 514.1,201.3 496.9,201.3 496.9,235.3 529.3,235.3 529.3,252.4 547.3,252.4 547.3,286.4 529.3,286.4 
				529.3,303.5 477.8,303.5 477.8,286.4 463,286.4 463,269.3 496.2,269.3 496.2,286.4 513.3,286.4 513.3,252.4 477.8,252.4 
				477.8,235.3 463,235.3 463,201.3 480.9,201.3 480.9,184.2 532.5,184.2 532.5,201.3 547.3,201.3 547.3,218.5 			"/>
		</g>
	</g>
	<rect x="187.5" y="474.5" class="st1" width="14.3" height="14.3"/>
	<rect x="187.5" y="488.9" class="st2" width="14.3" height="57.3"/>
	<polygon class="st1" points="502.8,503.2 502.8,517.5 488.5,517.5 488.5,546.2 474.2,546.2 474.2,517.5 445.5,517.5 445.5,546.2 
		474.2,546.2 474.2,560.5 431.2,560.5 431.2,531.9 416.8,531.9 416.8,546.2 402.5,546.2 402.5,560.5 216.2,560.5 216.2,546.2 
		201.8,546.2 201.8,503.2 216.2,503.2 216.2,517.5 230.5,517.5 230.5,531.9 388.2,531.9 388.2,517.5 402.5,517.5 402.5,503.2 
		416.8,503.2 416.8,517.5 431.2,517.5 431.2,503.2 459.8,503.2 459.8,488.9 474.2,488.9 474.2,503.2 	"/>
	<rect x="216.2" y="474.5" class="st2" width="28.7" height="28.7"/>
	<path class="st3" d="M416.8,431.5v-28.7h-14.3v-43h-14.3v14.3h-14.3v14.3h14.3v14.3h-14.3v-14.3h-129v14.3h-71.7v-14.3h-14.3v-14.3
		h-14.3v14.3h-14.3v43h14.3v14.3h14.3v14.3h28.7v14.3h14.3v28.7h14.3v-28.7h28.7v28.7h-28.7v14.3h14.3v14.3h57.3v-28.7h14.3v14.3
		h14.3v-14.3h14.3v14.3h14.3v-14.3h14.3v28.7h28.7v-14.3h14.3v-14.3h14.3v-28.7h14.3v-43H416.8z M388.2,488.9h-28.7v-28.7h28.7
		V488.9z"/>
	<polygon class="st1" points="402.5,331.2 402.5,359.9 388.2,359.9 388.2,374.2 373.8,374.2 373.8,388.5 244.8,388.5 244.8,374.2 
		359.5,374.2 359.5,359.9 373.8,359.9 373.8,345.5 388.2,345.5 388.2,331.2 	"/>
	<rect x="244.8" y="359.9" class="st2" width="114.7" height="14.3"/>
	<polygon class="st2" points="316.5,517.5 316.5,531.9 287.8,531.9 287.8,503.2 302.2,503.2 302.2,517.5 	"/>
	<rect x="316.5" y="503.2" class="st2" width="14.3" height="14.3"/>
	<rect x="316.5" y="517.5" class="st3" width="14.3" height="14.3"/>
	<polygon class="st2" points="359.5,503.2 359.5,531.9 330.8,531.9 330.8,517.5 345.2,517.5 345.2,503.2 	"/>
	<rect x="359.5" y="460.2" class="st2" width="28.7" height="28.7"/>
	<rect x="359.5" y="345.5" class="st2" width="14.3" height="14.3"/>
	<rect x="373.8" y="388.5" class="st1" width="14.3" height="14.3"/>
	<rect x="373.8" y="331.2" class="st2" width="14.3" height="14.3"/>
	<rect x="388.2" y="316.9" class="st2" width="14.3" height="14.3"/>
	<rect x="402.5" y="331.2" class="st2" width="14.3" height="71.7"/>
	<rect x="416.8" y="474.5" class="st1" width="14.3" height="28.7"/>
	<rect x="416.8" y="503.2" class="st3" width="14.3" height="14.3"/>
	<rect x="416.8" y="402.9" class="st2" width="14.3" height="28.7"/>
	<rect x="431.2" y="474.5" class="st2" width="14.3" height="14.3"/>
	<rect x="431.2" y="488.9" class="st2" width="14.3" height="14.3"/>
	<rect x="431.2" y="460.2" class="st1" width="14.3" height="14.3"/>
	<rect x="431.2" y="431.5" class="st2" width="14.3" height="28.7"/>
	<rect x="445.5" y="488.9" class="st4" width="14.3" height="14.3"/>
	<polygon class="st5" points="459.8,560.5 459.8,574.9 173.2,574.9 173.2,560.5 187.5,560.5 187.5,546.2 216.2,546.2 216.2,560.5 
		402.5,560.5 402.5,546.2 416.8,546.2 416.8,531.9 431.2,531.9 431.2,560.5 	"/>
	<rect x="445.5" y="460.2" class="st2" width="57.3" height="14.3"/>
	<rect x="445.5" y="517.5" class="st4" width="28.7" height="28.7"/>
	<rect x="459.8" y="560.5" class="st2" width="14.3" height="14.3"/>
	<rect x="474.2" y="488.9" class="st4" width="14.3" height="14.3"/>
	<rect x="474.2" y="546.2" class="st2" width="14.3" height="14.3"/>
	<polygon class="st3" points="502.8,474.5 502.8,503.2 488.5,503.2 488.5,488.9 445.5,488.9 445.5,474.5 	"/>
	<rect x="488.5" y="517.5" class="st4" width="14.3" height="14.3"/>
	<rect x="488.5" y="531.9" class="st2" width="14.3" height="14.3"/>
	<rect x="502.8" y="474.5" class="st2" width="14.3" height="57.3"/>
	<rect x="173.2" y="531.9" class="st4" width="14.3" height="14.3"/>
	<rect x="173.2" y="546.2" class="st2" width="14.3" height="14.3"/>
	<rect x="173.2" y="388.5" class="st1" width="71.7" height="14.3"/>
	<rect x="173.2" y="374.2" class="st2" width="71.7" height="14.3"/>
	<rect x="158.8" y="503.2" class="st4" width="14.3" height="14.3"/>
	<rect x="158.8" y="560.5" class="st2" width="14.3" height="14.3"/>
	<rect x="158.8" y="374.2" class="st1" width="14.3" height="14.3"/>
	<rect x="158.8" y="359.9" class="st2" width="14.3" height="14.3"/>
	<rect x="130.2" y="531.9" class="st4" width="28.7" height="28.7"/>
	<polygon class="st1" points="187.5,460.2 187.5,474.5 115.8,474.5 115.8,488.9 101.5,488.9 101.5,503.2 87.2,503.2 87.2,517.5 
		72.8,517.5 72.8,546.2 101.5,546.2 101.5,560.5 58.5,560.5 58.5,503.2 72.8,503.2 72.8,474.5 87.2,474.5 87.2,460.2 101.5,460.2 
		101.5,445.9 115.8,445.9 115.8,374.2 130.2,374.2 130.2,345.5 144.5,345.5 144.5,359.9 158.8,359.9 158.8,374.2 144.5,374.2 
		144.5,388.5 130.2,388.5 130.2,431.5 144.5,431.5 144.5,445.9 158.8,445.9 158.8,460.2 	"/>
	<rect x="144.5" y="345.5" class="st2" width="14.3" height="14.3"/>
	<rect x="130.2" y="474.5" class="st2" width="57.3" height="14.3"/>
	<rect x="130.2" y="503.2" class="st4" width="14.3" height="14.3"/>
	<rect x="130.2" y="331.2" class="st2" width="14.3" height="14.3"/>
	<rect x="115.8" y="474.5" class="st5" width="14.3" height="14.3"/>
	<rect x="115.8" y="488.9" class="st2" width="14.3" height="14.3"/>
	<rect x="115.8" y="345.5" class="st2" width="14.3" height="28.7"/>
	<rect x="101.5" y="488.9" class="st5" width="14.3" height="14.3"/>
	<rect x="101.5" y="503.2" class="st2" width="14.3" height="14.3"/>
	<rect x="101.5" y="374.2" class="st2" width="14.3" height="71.7"/>
	<rect x="87.2" y="503.2" class="st5" width="14.3" height="14.3"/>
	<rect x="87.2" y="517.5" class="st2" width="14.3" height="14.3"/>
	<rect x="87.2" y="445.9" class="st2" width="14.3" height="14.3"/>
	<rect x="72.8" y="517.5" class="st5" width="14.3" height="14.3"/>
	<path class="st3" d="M130.2,488.9v14.3h14.3v14.3h-14.3v-14.3h-14.3v14.3h-14.3v14.3H72.8v14.3h28.7v14.3h28.7v-28.7h28.7v28.7
		h14.3v-28.7h14.3v-43H130.2z M173.2,517.5h-14.3v-14.3h14.3V517.5z"/>
	<rect x="72.8" y="460.2" class="st2" width="14.3" height="14.3"/>
	<rect x="58.5" y="474.5" class="st2" width="14.3" height="28.7"/>
	<rect x="58.5" y="560.5" class="st5" width="100.3" height="14.3"/>
	<rect x="44.2" y="503.2" class="st2" width="14.3" height="71.7"/>
</g>
</svg>
